<svg id="Layer_1" data-name="Layer 1" xmlns="http://www.w3.org/2000/svg" width="1508" height="230" viewBox="0 0 1508 230"><defs><style>.cls-1{fill:none;stroke:#000;stroke-width:5px;}</style></defs><title>markdonatelli</title><path d="M105,105.2q9.45-21,33-21c11.6,0,20.6,3.9,27,11.8,6.1,7.5,9.2,17.9,9.2,31.2V184H150.4V127.2c0-7.2-1.7-12.6-5.2-16.2-3.5-3.7-8.3-5.6-14.6-5.6s-11.4,2.7-15.4,8.2-6.1,13.7-6.4,24.8V184H85.2V127.2c0-7.2-1.7-12.6-5.2-16.2-3.5-3.7-8.3-5.6-14.6-5.6s-11.7,2.8-16.2,8.4c-4.4,5.6-6.7,14-7,25.2v45H18.6V86.8H39.2l2.6,16.8c6.4-12.9,16.7-19.4,30.8-19.4,8.1,0,14.9,1.9,20.2,5.6A33.439,33.439,0,0,1,105,105.2Zm135.4,22c7.7,0,16.7,1.3,26.8,3.8v-9.6q0-10.2-4.2-15c-2.7-3.3-7.1-5-13.4-5-6.1,0-10.9,1.3-14.2,3.8a12.1471,12.1471,0,0,0-5,10.4H204.6c0-11.1,3.9-19.1,11.6-24,7.9-4.9,18.8-7.4,32.8-7.4,20,0,32.9,7,38.8,21a44.1375,44.1375,0,0,1,3,17V184H270.2l-1.8-13c-6.3,10.5-15.9,15.8-28.8,15.8-12.5,0-22.3-3.1-29.2-9.2a28.9244,28.9244,0,0,1-9.6-22.2c0-9.1,3.5-16,10.6-20.8C218.5,129.7,228.2,127.2,240.4,127.2ZM267.2,146a85.9872,85.9872,0,0,0-22-3.2c-12.8,0-19.2,4.3-19.2,12.8a12.4911,12.4911,0,0,0,4.4,9.4c2.9,2.5,7.6,3.8,14,3.8,6.5,0,11.9-2.1,16-6.4A23.7378,23.7378,0,0,0,267.2,146Zm81.6-40q8.85-21,26.4-21a36.0442,36.0442,0,0,1,8.6,1.4l-.4,23.6a52.1677,52.1677,0,0,0-11-1.2c-15.7,0-23.6,10.9-23.6,32.6V184H325.2V86.6h23.6Zm94,30.6-10.8,9V184H408.4V46.8H432V121l38.4-34.2h32l-43,36L504.8,184H476Z"/><path class="cls-1" d="M755.3,169.1h0c-11,11.8-25.9,17.6-44.4,17.6-18.4,0-33.3-5.9-44.2-18-11.5-12.5-17.1-30-17.1-52.3,0-22.5,5.6-40.2,17.1-52.5,10.8-11.7,25.8-17.4,44.4-17.4a64.27,64.27,0,0,1,24.7,4.6,51.94,51.94,0,0,1,19.5,13.2m0,104.8h0m0,0h0m.1,0c11.5-12.6,17.1-30.3,17.1-52.7,0-22.3-5.6-39.8-17.1-52.1M521.5,181.4v2.5h44.7c20.3,0,36.9-6,49.5-18.3,12.8-12.3,19.2-28.7,19.2-49,0-20.4-6.3-36.9-19.2-49.2C603,55.1,586.4,49.1,566.2,49.1H521.5V181.4ZM734.1,83.9h0c5.8,7.4,8.9,18.3,8.9,32.9,0,14.5-3.1,25.3-8.9,32.7h0c-5.6,7.2-13.2,10.8-23,10.8s-17.5-3.6-23.2-10.9c-5.8-7.4-8.9-18.2-8.9-32.6,0-14.6,3.1-25.5,8.9-32.9h0c5.8-7.5,13.4-11.2,23.2-11.2S728.5,76.4,734.1,83.9Zm91.3-33.6-.7-1.2H795V183.9h28.5V95l54.4,87.7.7,1.2h27.9V49.1H877.9v85.7Zm145.8-1.2h-1.8l-.6,1.7L924.6,180.6l-1.1,3.3h30.3l.6-1.7,8.6-26.3h44.6l8.4,26.3.6,1.7h30.2l-1.1-3.3L1003.1,50.8l-.6-1.7H971.2Zm68.8,0h-2.5V74.5h40.2V183.9h28.6V74.5h40.2V49.1H1040Zm123.7,0h-2.5V183.9h88.6V158.3h-60V129.1H1246V103.7h-56.2V74.5h60V49.1h-86.1Zm196.8,111.7v-2.5h-53.4V49.1h-28.6V183.9h82V160.8Zm98.9,0v-2.5H1406V49.1h-28.6V183.9h82V160.8Zm19.3-111.7h-2.5V183.9h28.6V49.1h-26.1ZM566.2,157.5H550.3v-82h15.9c11.8,0,21,3.8,28,11.4,6.7,7.5,10.1,17.3,10.1,29.7,0,12.2-3.4,21.9-10.1,29.3C587.1,153.6,577.8,157.5,566.2,157.5Zm434-24.4H970.7l14.9-45.2Z"/></svg>